<svg width="512" height="512" xmlns="http://www.w3.org/2000/svg" preserveAspectRatio="xMidYMid">

 <g>
  <title>Layer 1</title>
  <path id="svg_1" fill="#DA4E31" d="m256.001,128.0025c-70.69,0 -128.001,57.304 -128.001,127.997c0,70.69 57.311,127.998 128.001,127.998s127.999,-57.308 127.999,-127.998c0,-70.694 -57.311,-127.997 -127.999,-127.997zm0,239.56c-20.112,0 -36.419,-13.435 -36.419,-30.004l72.838,0c0,16.566 -16.306,30.004 -36.419,30.004zm60.153,-39.94l-120.312,0l0,-21.817l120.314,0l0,21.816l-0.002,0l0,0.001zm-0.432,-33.045l-119.537,0c-0.398,-0.458 -0.804,-0.91 -1.188,-1.375c-12.315,-14.954 -15.216,-22.76 -18.032,-30.716c-0.048,-0.262 14.933,3.06 25.556,5.45c0,0 5.466,1.265 13.458,2.722c-7.673,-8.994 -12.23,-20.428 -12.23,-32.116c0,-25.658 19.68,-48.079 12.58,-66.201c6.91,0.562 14.3,14.583 14.8,36.505c7.346,-10.152 10.42,-28.69 10.42,-40.056c0,-11.769 7.755,-25.44 15.512,-25.907c-6.915,11.396 1.79,21.165 9.53,45.4c2.902,9.103 2.532,24.423 4.772,34.138c0.744,-20.178 4.213,-49.62 17.014,-59.784c-5.647,12.8 0.836,28.818 5.27,36.518c7.154,12.424 11.49,21.836 11.49,39.638c0,11.936 -4.407,23.173 -11.84,31.958c8.452,-1.586 14.289,-3.016 14.289,-3.016l27.45,-5.355c0.002,-0.002 -3.987,16.401 -19.314,32.197z"/>
 </g>
</svg>