<svg version="1.1" id="prefix__Layer_1" x="0" y="0" viewBox="0 0 400 266.667" xml:space="preserve" width="600" height="400" xmlns="http://www.w3.org/2000/svg"><style type="text/css" id="style1">.prefix__st0{fill:#565656}</style><linearGradient id="prefix__SVGID_1_" gradientUnits="userSpaceOnUse" x1="71.25" y1="10.489" x2="71.25" y2="113.341" gradientTransform="matrix(1 0 0 -1 0 148.6)"><stop offset="0" id="prefix__stop7" stop-color="#fcee1f"/><stop offset="1" id="prefix__stop8" stop-color="#f15b2a"/></linearGradient><g id="prefix__g8" transform="translate(128.75 60.533)"><g id="prefix__g7"><path class="prefix__st0" d="M28.7 131.5c-.3 7.9-6.6 14.1-14.4 14.1C6.1 145.6 0 139 0 130.9s6.6-14.7 14.7-14.7c3.6 0 7.2 1.6 10.2 4.4l-2.3 2.9c-2.3-2-5.1-3.4-7.9-3.4-5.9 0-10.8 4.8-10.8 10.8 0 6.1 4.6 10.8 10.4 10.8 5.2 0 9.3-3.8 10.2-8.8H12.6v-3.5h16.1z" id="prefix__path1"/><path class="prefix__st0" d="M42.3 129.5h-2.2c-2.4 0-4.4 2-4.4 4.4v11.4h-3.9v-19.6H35v1.6c1.1-1.1 2.7-1.6 4.6-1.6h4.2z" id="prefix__path2"/><path class="prefix__st0" d="M63.7 145.3h-3.4v-2.5c-2.6 2.5-6.6 3.7-10.7 1.9-3-1.3-5.3-4.1-5.9-7.4-1.2-6.3 3.7-11.9 9.9-11.9 2.6 0 5 1.1 6.7 2.8v-2.5h3.4zm-4-8.3c.9-4-2.1-7.6-6-7.6-3.4 0-6.1 2.8-6.1 6.1 0 3.8 3.3 6.7 7.2 6.1 2.3-.4 4.3-2.3 4.9-4.6z" id="prefix__path3"/><path class="prefix__st0" d="M71.5 124.7v1.1h6.2v3.4h-6.2v16.1h-3.8v-20.5c0-4.3 3.1-6.8 7-6.8h4.7l-1.6 3.7h-3.1c-1.8-.1-3.2 1.3-3.2 3z" id="prefix__path4"/><path class="prefix__st0" d="M98.5 145.3h-3.3v-2.5c-2.6 2.5-6.6 3.7-10.7 1.9-3-1.3-5.3-4.1-5.9-7.4-1.2-6.3 3.7-11.9 9.9-11.9 2.6 0 5 1.1 6.7 2.8v-2.5h3.4v19.6zm-4-8.3c.9-4-2.1-7.6-6-7.6-3.4 0-6.1 2.8-6.1 6.1 0 3.8 3.3 6.7 7.2 6.1 2.4-.4 4.3-2.3 4.9-4.6z" id="prefix__path5"/><path class="prefix__st0" d="M119.4 133.8v11.5h-3.9v-11.6c0-2.4-2-4.4-4.4-4.4-2.5 0-4.4 2-4.4 4.4v11.6h-3.9v-19.6h3.2v1.7c1.4-1.3 3.3-2 5.2-2 4.6.1 8.2 3.8 8.2 8.4z" id="prefix__path6"/><path class="prefix__st0" d="M142.4 145.3h-3.3v-2.5c-2.6 2.5-6.6 3.7-10.7 1.9-3-1.3-5.3-4.1-5.9-7.4-1.2-6.3 3.7-11.9 9.9-11.9 2.6 0 5 1.1 6.7 2.8v-2.5h3.4v19.6zm-4-8.3c.9-4-2.1-7.6-6-7.6-3.4 0-6.1 2.8-6.1 6.1 0 3.8 3.3 6.7 7.2 6.1 2.4-.4 4.3-2.3 4.9-4.6z" id="prefix__path7"/></g><path d="M122.9 49.9c-.2-1.9-.5-4.1-1.1-6.5-.6-2.4-1.6-5-2.9-7.8-1.4-2.7-3.1-5.6-5.4-8.3-.9-1.1-1.9-2.1-2.9-3.2 1.6-6.3-1.9-11.8-1.9-11.8-6.1-.4-9.9 1.9-11.3 2.9-.2-.1-.5-.2-.7-.3-1-.4-2.1-.8-3.2-1.2-1.1-.3-2.2-.7-3.3-.9-1.1-.3-2.3-.5-3.5-.7-.2 0-.4-.1-.6-.1C83.5 3.6 75.9 0 75.9 0c-8.7 5.6-10.4 13.1-10.4 13.1s0 .2-.1.4c-.5.1-.9.3-1.4.4-.6.2-1.3.4-1.9.7-.6.3-1.3.5-1.9.8-1.3.6-2.5 1.2-3.8 1.9-1.2.7-2.4 1.4-3.5 2.2-.2-.1-.3-.2-.3-.2-11.7-4.5-22.1.9-22.1.9-.9 12.5 4.7 20.3 5.8 21.7-.3.8-.5 1.5-.8 2.3-.9 2.8-1.5 5.7-1.9 8.7-.1.4-.1.9-.2 1.3-10.8 5.3-14 16.3-14 16.3 9 10.4 19.6 11 19.6 11 1.3 2.4 2.9 4.7 4.6 6.8.7.9 1.5 1.7 2.3 2.6-3.3 9.4.5 17.3.5 17.3 10.1.4 16.7-4.4 18.1-5.5l3 .9c3.1.8 6.3 1.3 9.4 1.4H81c4.7 6.8 13.1 7.7 13.1 7.7 5.9-6.3 6.3-12.4 6.3-13.8v-.1-.2-.3c1.2-.9 2.4-1.8 3.6-2.8 2.4-2.1 4.4-4.6 6.2-7.2.2-.2.3-.5.5-.7 6.7.4 11.4-4.2 11.4-4.2-1.1-7-5.1-10.4-5.9-11l-.1-.1-.1-.1-.1-.1c0-.4.1-.8.1-1.3.1-.8.1-1.5.1-2.3V67.5 66.2v-.6c0-.2 0-.4-.1-.6l-.1-.6-.1-.6c-.1-.8-.3-1.5-.4-2.3-.7-3-1.9-5.9-3.4-8.4-1.6-2.6-3.5-4.8-5.7-6.8-2.2-1.9-4.6-3.5-7.2-4.6-2.6-1.2-5.2-1.9-7.9-2.2-1.3-.2-2.7-.2-4-.2h-2c-.7.1-1.4.2-2 .3-2.7.5-5.2 1.5-7.4 2.8-2.2 1.3-4.1 3-5.7 4.9-1.6 1.9-2.8 3.9-3.6 6.1-.8 2.1-1.3 4.4-1.4 6.5v2.4c0 .3 0 .5.1.8.1 1.1.3 2.1.6 3.1.6 2 1.5 3.8 2.7 5.4 1.2 1.6 2.5 2.8 4 3.8s3 1.7 4.6 2.2c1.6.5 3.1.7 4.5.6h2.1c.2 0 .4-.1.5-.1.2 0 .3-.1.5-.1.3-.1.7-.2 1-.3.6-.2 1.2-.5 1.8-.7.6-.3 1.1-.6 1.5-.9.1-.1.3-.2.4-.3.5-.4.6-1.1.2-1.6-.4-.4-1-.5-1.5-.3-.1.1-.2.1-.4.2-.4.2-.9.4-1.3.5-.5.1-1 .3-1.5.4-.3 0-.5.1-.8.1H82.4s-.1 0 0 0H82c-.1 0-.3 0-.4-.1-1.1-.2-2.3-.5-3.4-1s-2.2-1.2-3.1-2.1c-1-.9-1.8-1.9-2.5-3.1-.7-1.2-1.1-2.5-1.3-3.8-.1-.7-.2-1.4-.1-2.1v-.6c0 .1 0 0 0 0v-.2-.3c0-.4.1-.7.2-1.1.5-3 2-5.9 4.3-8.1.6-.6 1.2-1.1 1.9-1.5.7-.5 1.4-.9 2.1-1.2.7-.3 1.5-.6 2.3-.8.8-.2 1.6-.4 2.4-.4.4 0 .8-.1 1.2-.1h.8c.1 0 0 0 0 0h.4c.9.1 1.8.2 2.6.4 1.7.4 3.4 1 5 1.9 3.2 1.8 5.9 4.5 7.5 7.8.8 1.6 1.4 3.4 1.7 5.3.1.5.1.9.2 1.4V68c0 .5-.1 1-.1 1.5-.1.5-.1 1-.2 1.5l-.3 1.5c-.2 1-.6 1.9-.9 2.9-.7 1.9-1.7 3.7-2.9 5.3-2.4 3.3-5.7 6-9.4 7.7-1.9.8-3.8 1.5-5.8 1.8-1 .2-2 .3-3 .3h-1.5c.1 0 0 0 0 0h-.1c-.5 0-1.1 0-1.6-.1-2.2-.2-4.3-.6-6.4-1.2-2.1-.6-4.1-1.4-6-2.4-3.8-2-7.2-4.9-9.9-8.2-1.3-1.7-2.5-3.5-3.5-5.4-1-1.9-1.7-3.9-2.3-5.9-.6-2-.9-4.1-1-6.2V58.8 58c0-1 .1-2.1.3-3.2.1-1.1.3-2.1.5-3.2s.5-2.1.8-3.2c.6-2.1 1.3-4.1 2.2-6 1.8-3.8 4.1-7.2 6.8-9.9.7-.7 1.4-1.3 2.2-1.9.3-.3 1-.9 1.8-1.4.8-.5 1.6-1 2.5-1.4.4-.2.8-.4 1.3-.6.2-.1.4-.2.7-.3.2-.1.4-.2.7-.3.9-.4 1.8-.7 2.7-1 .2-.1.5-.1.7-.2.2-.1.5-.1.7-.2.5-.1.9-.2 1.4-.4.2-.1.5-.1.7-.2.2 0 .5-.1.7-.1.2 0 .5-.1.7-.1l.4-.1.4-.1c.2 0 .5-.1.7-.1.3 0 .5-.1.8-.1.2 0 .6-.1.8-.1.2 0 .3 0 .5-.1h.7c.3 0 .5 0 .8-.1h.4s.1 0 0 0h3.7c1.8.1 3.6.3 5.3.6 3.4.6 6.7 1.7 9.6 3.2 2.9 1.4 5.6 3.2 7.8 5.1.1.1.3.2.4.4.1.1.3.2.4.4.3.2.5.5.8.7.3.2.5.5.8.7.2.3.5.5.7.8 1 1 1.9 2.1 2.7 3.1 1.6 2.1 2.9 4.2 3.9 6.2.1.1.1.2.2.4.1.1.1.2.2.4s.2.5.4.7c.1.2.2.5.3.7.1.2.2.5.3.7.4.9.7 1.8 1 2.7.5 1.4.8 2.6 1.1 3.6.1.4.5.7.9.7.5 0 .8-.4.8-.9-.1-1.2-.1-2.5-.2-4z" id="prefix__path8" fill="url(#prefix__SVGID_1_)"/></g></svg>