<?xml version="1.0" encoding="UTF-8" standalone="no"?>
<!-- Uploaded to: SVG Repo, www.svgrepo.com, Generator: SVG Repo Mixer Tools -->

<svg
   width="600"
   height="400"
   viewBox="0 0 85.714298 57.142865"
   version="1.1"
   id="svg2"
   sodipodi:docname="nginx-svgrepo-com.svg"
   xml:space="preserve"
   inkscape:version="1.3.2 (091e20e, 2023-11-25)"
   xmlns:inkscape="http://www.inkscape.org/namespaces/inkscape"
   xmlns:sodipodi="http://sodipodi.sourceforge.net/DTD/sodipodi-0.dtd"
   xmlns="http://www.w3.org/2000/svg"
   xmlns:svg="http://www.w3.org/2000/svg"
   xmlns:rdf="http://www.w3.org/1999/02/22-rdf-syntax-ns#"
   xmlns:cc="http://creativecommons.org/ns#"
   xmlns:dc="http://purl.org/dc/elements/1.1/"><defs
     id="defs2" /><sodipodi:namedview
     id="namedview2"
     pagecolor="#ffffff"
     bordercolor="#000000"
     borderopacity="0.25"
     inkscape:showpageshadow="2"
     inkscape:pageopacity="0.0"
     inkscape:pagecheckerboard="0"
     inkscape:deskcolor="#d1d1d1"
     inkscape:zoom="0.59"
     inkscape:cx="301.69492"
     inkscape:cy="277.11864"
     inkscape:window-width="1792"
     inkscape:window-height="982"
     inkscape:window-x="0"
     inkscape:window-y="345"
     inkscape:window-maximized="1"
     inkscape:current-layer="svg2" /><title
     id="title1">file_type_nginx</title><g
     id="g2"
     transform="translate(26.855436,7.5074808)"><path
       d="m 15.948,2 h 0.065 a 10.418,10.418 0 0 1 0.972,0.528 q 5.429,3.122 10.858,6.246 a 0.792,0.792 0 0 1 0.414,0.788 c -0.008,4.389 0,8.777 -0.005,13.164 a 0.813,0.813 0 0 1 -0.356,0.507 q -5.773,3.324 -11.547,6.644 a 0.587,0.587 0 0 1 -0.657,0.037 Q 9.912,26.6 4.143,23.274 a 0.7,0.7 0 0 1 -0.4,-0.666 q 0,-6.582 0,-13.163 A 0.693,0.693 0 0 1 4.13,8.775 Q 9.552,5.657 14.974,2.535 C 15.296,2.351 15.612,2.156 15.948,2"
       style="fill:#019639"
       id="path1" /><path
       d="m 8.767,10.538 q 0,5.429 0,10.859 a 1.509,1.509 0 0 0 0.427,1.087 1.647,1.647 0 0 0 2.06,0.206 1.564,1.564 0 0 0 0.685,-1.293 c 0,-2.62 -0.005,-5.24 0,-7.86 q 3.583,4.29 7.181,8.568 a 2.833,2.833 0 0 0 2.6,0.782 1.561,1.561 0 0 0 1.251,-1.371 q 0.008,-5.541 0,-11.081 a 1.582,1.582 0 0 0 -3.152,0 c 0,2.662 -0.016,5.321 0,7.982 -2.346,-2.766 -4.663,-5.556 -7,-8.332 A 2.817,2.817 0 0 0 10.17,9.033 1.579,1.579 0 0 0 8.767,10.538 Z"
       style="fill:#ffffff"
       id="path2" /></g><path
     d="m 33.686211,45.919182 c -0.165725,0 -0.328813,-0.06446 -0.450727,-0.186599 l -3.771547,-3.771892 v 3.321221 c 0,0.352096 -0.285289,0.637327 -0.637327,0.637327 -0.351808,0 -0.637327,-0.285289 -0.637327,-0.637327 v -4.859945 c 0,-0.257993 0.155518,-0.490238 0.393613,-0.588871 a 0.63629447,0.63629447 0 0 1 0.694441,0.1382 l 3.771548,3.771892 v -3.321221 c 0,-0.352095 0.285289,-0.637327 0.637326,-0.637327 0.352096,0 0.637327,0.285289 0.637327,0.637327 v 4.859945 a 0.63767076,0.63767076 0 0 1 -0.637327,0.637327 m 2.951292,-6.128463 -0.17513,0.326864 -1.35442,2.461512 -0.17513,0.310807 0.17513,0.310463 1.354477,2.38209 0.182986,0.32652 h 3.545267 l 0.17513,-0.358404 1.011787,-2.039514 0.454053,-0.924106 H 40.80404 l -2.589046,0.0079 c -0.336727,-0.0046 -0.646502,0.300542 -0.646502,0.637327 0,0.336726 0.309775,0.642143 0.646502,0.637326 l 1.561433,-0.0079 -0.382373,0.77266 h -2.007631 l -0.996017,-1.75262 1.003931,-1.816329 h 2.135508 l 0.497865,1.021707 h 1.282796 l -0.808557,-1.937612 -0.175417,-0.35869 H 36.63756 m 6.456475,-0.0079 c -0.333974,0.0041 -0.633714,0.311553 -0.629413,0.645241 v 1.660867 h 1.274653 v -1.660868 c 0.004,-0.339136 -0.306449,-0.649541 -0.64524,-0.645241 m 2.043012,6.148591 A 0.63749871,0.63749871 0 0 1 44.49995,45.294141 v -4.859946 c 0,-0.352038 0.285289,-0.637269 0.637326,-0.637269 0.352096,0 0.637327,0.285231 0.637327,0.637326 v 3.321164 l 3.771662,-3.771949 a 0.63663854,0.63663854 0 0 1 0.694442,-0.1382 0.63749871,0.63749871 0 0 1 0.393326,0.588928 v 4.859946 c 0,0.35198 -0.285289,0.637269 -0.637327,0.637269 -0.352095,0 -0.637327,-0.285289 -0.637327,-0.637327 v -3.321106 l -3.771661,3.771891 a 0.63652387,0.63652387 0 0 1 -0.450728,0.186599 m 10.217985,-3.072173 1.982572,-1.975346 c 0.249333,-0.248302 0.250079,-0.651892 0.0015,-0.901455 -0.248304,-0.249334 -0.651605,-0.24985 -0.90117,-0.0015 l -1.985531,1.978786 -1.985668,-1.978787 c -0.249563,-0.248531 -0.652867,-0.247728 -0.901111,0.0015 -0.248589,0.249563 -0.247843,0.653154 0.0013,0.901456 l 1.982534,1.975403 -1.976722,1.969783 c -0.249563,0.248588 -0.250079,0.651892 -0.0016,0.901169 a 0.63417274,0.63417274 0 0 0 0.451473,0.187631 c 0.162687,0 0.325316,-0.06193 0.449696,-0.186083 l 1.980048,-1.97288 1.979761,1.97288 a 0.63509024,0.63509024 0 0 0 0.449924,0.186083 c 0.163662,0 0.326865,-0.06245 0.451473,-0.187631 0.248304,-0.249277 0.247786,-0.652581 -0.0015,-0.901111 L 55.35502,42.859294 m -12.261029,3.054053 c -0.333974,-0.004 -0.633714,-0.311496 -0.629413,-0.645183 v -2.667838 h 1.274653 v 2.667838 c 0.004,0.338791 -0.306449,0.649254 -0.64524,0.645183"
     id="path1-7"
     style="fill:#009900;stroke-width:0.0573444" /><metadata
     id="metadata2"><rdf:RDF><cc:Work
         rdf:about=""><dc:title>file_type_nginx</dc:title></cc:Work></rdf:RDF></metadata></svg>
