<svg width="20" height="20" xmlns="http://www.w3.org/2000/svg"><path d="M2.45 7.308c-.673 0-1.2.595-1.2 1.302v8.838c0 .706.526 1.302 1.201 1.302h3.006V7.933l-.08.311A47.603 47.603 0 017.202 5.26c.26-.391.532-.775.814-1.151.762-1.01 1.402-1.609 1.6-1.609 1.426 0 1.7.638 1.308 2.252a12.91 12.91 0 01-.312 1.051c-.053.16-.23.677-.255.75a9 9 0 00-.202.662c-.064.26-.09.463-.062.66.056.392.347.683.752.683h5.992c.57 0 .847.44.642 1.118l-1.912 6.333c-.245.812-1.084 1.491-1.806 1.491H4.853v1.25h8.908c1.265 0 2.56-1.048 2.958-2.367l1.912-6.334c.438-1.452-.375-2.74-1.794-2.74h-5.992c.224 0 .414.19.442.382.001.012.01-.054.037-.164a7.49 7.49 0 01.173-.562c.022-.068.2-.588.256-.754.147-.44.255-.801.341-1.154.559-2.297-.09-3.807-2.48-3.807-.741 0-1.528.734-2.55 2.09-.295.394-.58.797-.854 1.208a48.856 48.856 0 00-1.88 3.075l-.08.144v10.358l.603-.625H2.452c.016 0 .005-8.89.005-8.89 0-.04 2.396-.052 2.396-.052v-1.25H2.451z"/></svg>