<svg width="22" height="22" xmlns="http://www.w3.org/2000/svg"><path d="M16.156 14.266c-.612 0-1.177.214-1.62.573l-4.451-3.22a3.452 3.452 0 000-1.238l4.451-3.22a2.566 2.566 0 001.62.573 2.58 2.58 0 002.578-2.578 2.58 2.58 0 00-2.578-2.578 2.58 2.58 0 00-2.477 3.294L9.451 8.933A3.437 3.437 0 003.266 11a3.437 3.437 0 006.185 2.067l4.228 3.061a2.58 2.58 0 002.477 3.294 2.58 2.58 0 002.578-2.578 2.58 2.58 0 00-2.578-2.578zm0-10.227a1.118 1.118 0 110 2.235 1.118 1.118 0 010-2.235zm-9.453 8.852A1.893 1.893 0 014.813 11c0-1.042.848-1.89 1.89-1.89 1.042 0 1.89.848 1.89 1.89 0 1.042-.848 1.89-1.89 1.89zm9.453 5.07a1.118 1.118 0 11.001-2.235 1.118 1.118 0 010 2.235z"/></svg>