<svg width="16.000000" height="16.000000" viewBox="0 0 16 16" fill="none" xmlns="http://www.w3.org/2000/svg" xmlns:xlink="http://www.w3.org/1999/xlink">
	<desc>
			Created with Pixso.
	</desc>
	<defs/>
	<path d="M8 0C3.58203 0 0 3.58203 0 8C0 12.418 3.58203 16 8 16C12.418 16 16 12.418 16 8C16 3.58203 12.418 0 8 0ZM8 5.38965C7.46094 5.38965 7.01953 4.95117 7.01953 4.41016C7.01953 3.86914 7.46094 3.43066 8 3.43066C8.53906 3.43066 8.98047 3.86914 8.98047 4.41016C8.98047 4.95117 8.53906 5.38965 8 5.38965ZM8 6.69434C7.64062 6.69434 7.34766 6.98682 7.34766 7.34766L7.34766 11.9189C7.34766 12.2798 7.64062 12.5723 8 12.5723C8.35938 12.5723 8.65234 12.2798 8.65234 11.9189L8.65234 7.34766C8.65234 6.98682 8.35938 6.69434 8 6.69434Z" clip-rule="evenodd" fill="#1476FF" fill-opacity="1.000000" fill-rule="evenodd"/>
	<path d="M8 0C3.58 0 0 3.58 0 8C0 12.41 3.58 16 8 16C12.41 16 16 12.41 16 8C16 3.58 12.41 0 8 0Z" fill="#1476FF" fill-opacity="1.000000" fill-rule="evenodd"/>
	<path d="M8 5.38C7.45 5.38 7.01 4.94 7.01 4.4C7.01 3.86 7.45 3.42 8 3.42C8.53 3.42 8.98 3.86 8.98 4.4C8.98 4.94 8.53 5.38 8 5.38Z" fill="#FFFFFF" fill-opacity="1.000000" fill-rule="evenodd"/>
	<rect x="7.347656" y="6.693848" rx="0.653061" width="1.306123" height="5.877551" fill="#FFFFFF" fill-opacity="1.000000"/>
</svg>
