<svg width="16.000000" height="16.000000" viewBox="0 0 16 16" fill="none" xmlns="http://www.w3.org/2000/svg" xmlns:xlink="http://www.w3.org/1999/xlink">
	<desc>
			Created with Pixso.
	</desc>
	<defs>
		<clipPath id="clip510_38362">
			<rect id="ic_public_expand" width="16.000000" height="16.000000" fill="white" fill-opacity="0"/>
		</clipPath>
	</defs>
	<g clip-path="url(#clip510_38362)">
		<path id="path1" d="M2.37 7.99C2.37 7.11 2.37 6.23 2.37 5.35C2.37 4.93 2.42 4.51 2.53 4.09C2.76 3.22 3.33 2.7 4.2 2.5C4.63 2.41 5.08 2.36 5.53 2.37C7.21 2.37 8.9 2.37 10.58 2.37C11.01 2.37 11.43 2.42 11.85 2.52C12.74 2.74 13.28 3.3 13.49 4.2C13.58 4.62 13.62 5.05 13.62 5.49C13.62 7.19 13.62 8.89 13.62 10.6C13.62 11.02 13.57 11.44 13.48 11.85C13.26 12.75 12.68 13.28 11.79 13.49C11.35 13.58 10.91 13.63 10.46 13.62C8.78 13.62 7.1 13.62 5.43 13.62C5 13.62 4.57 13.57 4.15 13.48C3.25 13.26 2.71 12.69 2.5 11.79C2.4 11.33 2.37 10.87 2.37 10.41C2.37 9.6 2.37 8.8 2.37 7.99Z" fill="#FFFFFF" fill-opacity="0" fill-rule="nonzero"/>
		<path id="path1" d="M2.37 5.35C2.37 4.93 2.42 4.51 2.53 4.09C2.76 3.22 3.33 2.7 4.2 2.5C4.63 2.41 5.08 2.36 5.53 2.37C7.21 2.37 8.9 2.37 10.58 2.37C11.01 2.37 11.43 2.42 11.85 2.52C12.74 2.74 13.28 3.3 13.49 4.2C13.58 4.62 13.62 5.05 13.62 5.49C13.62 7.19 13.62 8.89 13.62 10.6C13.62 11.02 13.57 11.44 13.48 11.85C13.26 12.75 12.68 13.28 11.79 13.49C11.35 13.58 10.91 13.63 10.46 13.62C8.78 13.62 7.1 13.62 5.43 13.62C5 13.62 4.57 13.57 4.15 13.48C3.25 13.26 2.71 12.69 2.5 11.79C2.4 11.33 2.37 10.87 2.37 10.41C2.37 9.6 2.37 8.8 2.37 7.99C2.37 7.11 2.37 6.23 2.37 5.35Z" stroke="#FFFFFF" stroke-opacity="0" stroke-width="0.750000"/>
		<path id="path2" d="M2.37 7.99C2.37 7.11 2.37 6.23 2.37 5.35C2.37 4.93 2.42 4.51 2.53 4.09C2.76 3.22 3.33 2.7 4.2 2.5C4.63 2.41 5.08 2.36 5.53 2.37C7.21 2.37 8.9 2.37 10.58 2.37C11.01 2.37 11.43 2.42 11.85 2.52C12.74 2.74 13.28 3.3 13.49 4.2C13.58 4.62 13.62 5.05 13.62 5.49C13.62 7.19 13.62 8.89 13.62 10.6C13.62 11.02 13.57 11.44 13.48 11.85C13.26 12.75 12.68 13.28 11.79 13.49C11.35 13.58 10.91 13.63 10.46 13.62C8.78 13.62 7.1 13.62 5.43 13.62C5 13.62 4.57 13.57 4.15 13.48C3.25 13.26 2.71 12.69 2.5 11.79C2.4 11.33 2.37 10.87 2.37 10.41C2.37 9.6 2.37 8.8 2.37 7.99Z" fill="#000000" fill-opacity="0" fill-rule="nonzero"/>
		<path id="path2" d="M2.37 5.35C2.37 4.93 2.42 4.51 2.53 4.09C2.76 3.22 3.33 2.7 4.2 2.5C4.63 2.41 5.08 2.36 5.53 2.37C7.21 2.37 8.9 2.37 10.58 2.37C11.01 2.37 11.43 2.42 11.85 2.52C12.74 2.74 13.28 3.3 13.49 4.2C13.58 4.62 13.62 5.05 13.62 5.49C13.62 7.19 13.62 8.89 13.62 10.6C13.62 11.02 13.57 11.44 13.48 11.85C13.26 12.75 12.68 13.28 11.79 13.49C11.35 13.58 10.91 13.63 10.46 13.62C8.78 13.62 7.1 13.62 5.43 13.62C5 13.62 4.57 13.57 4.15 13.48C3.25 13.26 2.71 12.69 2.5 11.79C2.4 11.33 2.37 10.87 2.37 10.41C2.37 9.6 2.37 8.8 2.37 7.99C2.37 7.11 2.37 6.23 2.37 5.35Z" stroke="#FFFFFF" stroke-opacity="0" stroke-width="0.750000"/>
		<circle id="path3" cx="8.000000" cy="8.000000" r="6.000000" fill="#FFFFFF" fill-opacity="0"/>
		<circle id="path3" cx="8.000000" cy="8.000000" r="6.000000" stroke="#000000" stroke-opacity="0" stroke-width="0.750000"/>
		<path id="path4" d="M6.2 2.27L6.22 2.25C6.5 2.25 6.72 2.46 6.72 2.75C6.72 3.03 6.5 3.25 6.22 3.25L6.2 3.22L6.2 2.27ZM3.23 6.2L3.25 6.22C3.25 6.5 3.03 6.72 2.75 6.72C2.47 6.72 2.25 6.5 2.25 6.22L2.27 6.2L3.23 6.2ZM7.25 6.57L7.28 6.57C7.48 6.77 7.48 7.08 7.28 7.28C7.08 7.48 6.77 7.48 6.57 7.28L6.57 7.25L7.25 6.57ZM6.2 12.77L6.22 12.75C6.5 12.75 6.72 12.97 6.72 13.25C6.72 13.53 6.5 13.75 6.22 13.75L6.2 13.73L6.2 12.77ZM2.27 9.79L2.25 9.77C2.25 9.49 2.47 9.27 2.75 9.27C3.03 9.27 3.25 9.49 3.25 9.77L3.23 9.79L2.27 9.79ZM6.57 8.74L6.57 8.71C6.77 8.51 7.08 8.51 7.28 8.71C7.48 8.91 7.48 9.22 7.28 9.42L7.25 9.42L6.57 8.74ZM9.79 3.22L9.77 3.25C9.49 3.25 9.27 3.03 9.27 2.75C9.27 2.46 9.49 2.25 9.77 2.25L9.79 2.27L9.79 3.22ZM13.73 6.2L13.75 6.22C13.75 6.5 13.53 6.72 13.25 6.72C12.97 6.72 12.75 6.5 12.75 6.22L12.77 6.2L13.73 6.2ZM9.42 7.25L9.42 7.28C9.22 7.48 8.91 7.48 8.71 7.28C8.51 7.08 8.51 6.77 8.71 6.57L8.74 6.57L9.42 7.25Z" fill="#000000" fill-opacity="0" fill-rule="nonzero"/>
		<path id="path4" d="M6.22 2.75L2.75 2.75L2.75 6.22M2.75 2.75L6.92 6.92M6.22 13.25L2.75 13.25L2.75 9.77M2.75 13.25L6.92 9.07M9.77 2.75L13.25 2.75L13.25 6.22M13.25 2.75L9.07 6.92" stroke="#191919" stroke-opacity="1.000000" stroke-width="1.000000" stroke-linejoin="round" stroke-linecap="round"/>
		<path id="path5" d="M9.79 13.73L9.77 13.74C9.49 13.74 9.27 13.52 9.27 13.24C9.27 12.97 9.49 12.74 9.77 12.74L9.79 12.76L9.79 13.73ZM12.77 9.79L12.75 9.77C12.75 9.49 12.97 9.27 13.25 9.27C13.53 9.27 13.75 9.49 13.75 9.77L13.73 9.79L12.77 9.79ZM8.74 9.42L8.71 9.42C8.51 9.22 8.51 8.91 8.71 8.71C8.91 8.51 9.22 8.51 9.42 8.71L9.42 8.74L8.74 9.42Z" fill="#000000" fill-opacity="0" fill-rule="nonzero"/>
		<path id="path5" d="M9.77 13.24L13.25 13.24L13.25 9.77M13.25 13.24L9.07 9.07" stroke="#191919" stroke-opacity="1.000000" stroke-width="1.000000" stroke-linejoin="round" stroke-linecap="round"/>
		<path id="path6" d="M6.75 8.89C6.84 8.79 7 8.79 7.1 8.89C7.2 8.99 7.2 9.15 7.1 9.24L3.35 13L6.22 13C6.35 13 6.45 13.09 6.47 13.22L6.47 13.25C6.47 13.38 6.35 13.5 6.22 13.5L2.75 13.5L2.72 13.49L2.69 13.49L2.66 13.48L2.64 13.47L2.6 13.45C2.58 13.43 2.56 13.42 2.55 13.4L2.53 13.37L2.52 13.35L2.51 13.32L2.5 13.29L2.5 13.26L2.5 9.77C2.5 9.63 2.61 9.52 2.75 9.52C2.88 9.52 3 9.63 3 9.77L3 12.64L6.75 8.89ZM6.22 2.5C6.35 2.5 6.47 2.61 6.47 2.75C6.47 2.88 6.35 3 6.22 3L3.35 3L7.1 6.75C7.19 6.84 7.2 6.98 7.12 7.08C7.02 7.17 6.84 7.2 6.75 7.1L3 3.35L3 6.22C3 6.35 2.9 6.45 2.77 6.47L2.75 6.47C2.61 6.47 2.5 6.36 2.5 6.22L2.5 2.75L2.5 2.72L2.5 2.69L2.51 2.66L2.52 2.64L2.54 2.6C2.56 2.58 2.57 2.56 2.59 2.55L2.62 2.53L2.64 2.52L2.67 2.51L2.7 2.5L2.73 2.5L6.22 2.5ZM13.25 2.5L13.27 2.5L13.3 2.5L13.33 2.51L13.35 2.52L13.39 2.54C13.41 2.56 13.43 2.57 13.44 2.59L13.46 2.62L13.47 2.64L13.48 2.67L13.49 2.7L13.49 2.73L13.5 6.22C13.5 6.36 13.38 6.47 13.25 6.47C13.11 6.47 13 6.36 13 6.22L12.99 3.35L9.24 7.1C9.15 7.19 9.01 7.2 8.91 7.12C8.82 7.02 8.79 6.84 8.89 6.75L12.64 3L9.77 3C9.64 3 9.54 2.9 9.52 2.77L9.52 2.75C9.52 2.61 9.64 2.5 9.77 2.5L13.25 2.5Z" fill="#FFFFFF" fill-opacity="0" fill-rule="nonzero"/>
		<path id="path6" d="M7.1 8.89C7.2 8.99 7.2 9.15 7.1 9.24L3.35 13L6.22 13C6.35 13 6.45 13.09 6.47 13.22L6.47 13.25C6.47 13.38 6.35 13.5 6.22 13.5L2.75 13.5L2.72 13.49L2.69 13.49L2.66 13.48L2.64 13.47L2.6 13.45C2.58 13.43 2.56 13.42 2.55 13.4L2.53 13.37L2.52 13.35L2.51 13.32L2.5 13.29L2.5 13.26L2.5 9.77C2.5 9.63 2.61 9.52 2.75 9.52C2.88 9.52 3 9.63 3 9.77L3 12.64L6.75 8.89C6.84 8.79 7 8.79 7.1 8.89ZM6.47 2.75C6.47 2.88 6.35 3 6.22 3L3.35 3L7.1 6.75C7.19 6.84 7.2 6.98 7.12 7.08C7.02 7.17 6.84 7.2 6.75 7.1L3 3.35L3 6.22C3 6.35 2.9 6.45 2.77 6.47L2.75 6.47C2.61 6.47 2.5 6.36 2.5 6.22L2.5 2.75L2.5 2.72L2.5 2.69L2.51 2.66L2.52 2.64L2.54 2.6C2.56 2.58 2.57 2.56 2.59 2.55L2.62 2.53L2.64 2.52L2.67 2.51L2.7 2.5L2.73 2.5L6.22 2.5C6.35 2.5 6.47 2.61 6.47 2.75ZM13.27 2.5L13.3 2.5L13.33 2.51L13.35 2.52L13.39 2.54C13.41 2.56 13.43 2.57 13.44 2.59L13.46 2.62L13.47 2.64L13.48 2.67L13.49 2.7L13.49 2.73L13.5 6.22C13.5 6.36 13.38 6.47 13.25 6.47C13.11 6.47 13 6.36 13 6.22L12.99 3.35L9.24 7.1C9.15 7.19 9.01 7.2 8.91 7.12C8.82 7.02 8.79 6.84 8.89 6.75L12.64 3L9.77 3C9.64 3 9.54 2.9 9.52 2.77L9.52 2.75C9.52 2.61 9.64 2.5 9.77 2.5L13.25 2.5L13.27 2.5Z" stroke="#FFFFFF" stroke-opacity="0" stroke-width="0.750000" stroke-linejoin="round"/>
		<path id="path7" d="M8.89 8.89C8.99 8.79 9.15 8.79 9.24 8.89L12.99 12.64L13 9.77C13 9.64 13.09 9.54 13.22 9.52L13.25 9.52C13.38 9.52 13.5 9.63 13.5 9.77L13.5 13.24L13.49 13.27L13.49 13.3L13.48 13.33L13.47 13.35L13.45 13.39C13.43 13.41 13.42 13.43 13.4 13.44L13.38 13.46L13.35 13.47L13.32 13.48L13.29 13.49L13.26 13.49L9.77 13.49C9.64 13.49 9.52 13.38 9.52 13.24C9.52 13.11 9.64 12.99 9.77 12.99L12.64 12.99L8.89 9.24C8.8 9.15 8.81 8.99 8.89 8.89Z" fill="#FFFFFF" fill-opacity="0" fill-rule="nonzero"/>
		<path id="path7" d="M9.24 8.89L12.99 12.64L13 9.77C13 9.64 13.09 9.54 13.22 9.52L13.25 9.52C13.38 9.52 13.5 9.63 13.5 9.77L13.5 13.24L13.49 13.27L13.49 13.3L13.48 13.33L13.47 13.35L13.45 13.39C13.43 13.41 13.42 13.43 13.4 13.44L13.38 13.46L13.35 13.47L13.32 13.48L13.29 13.49L13.26 13.49L9.77 13.49C9.64 13.49 9.52 13.38 9.52 13.24C9.52 13.11 9.64 12.99 9.77 12.99L12.64 12.99L8.89 9.24C8.8 9.15 8.81 8.99 8.89 8.89C8.99 8.79 9.15 8.79 9.24 8.89Z" stroke="#FFFFFF" stroke-opacity="0" stroke-width="0.750000" stroke-linejoin="round"/>
	</g>
</svg>
